PathFileType	4	(X/Y/Z)	Patient4_TMGait_0pt8_01_left_43.trc.trc
DataRate	CameraRate	NumFrames	NumMarkers	Units	OrigDataRate	OrigDataStartFrame	OrigNumFrames
88.050314465409	88.050314465409	4	33	mm	88.050314465409	1	       141
Frame#	Time	Sacral			L.Shoulder			Chest			R.Shoulder			Neck			R.ASIS			L.ASIS			R.Thigh.Superior			R.Thigh.Lateral			R.Thigh.Inferior			R.Patella			L.Thigh.Superior			L.Thigh.Lateral			L.Thigh.Inferior			L.Patella			L.Shank.Superior			L.Shank.Lateral			L.Shank.Inferior			R.Shank.Superior			R.Shank.Lateral			R.Shank.Inferior			R.Heel			R.Midfoot.Superior			R.Midfoot.Lateral			R.Toe			L.Heel			L.Midfoot.Lateral			L.Midfoot.Superior			L.Toe			L.Elbow			L.Wrist			R.Elbow			R.Wrist			
		X1	Y1	Z1	X2	Y2	Z2	X3	Y3	Z3	X4	Y4	Z4	X5	Y5	Z5	X6	Y6	Z6	X7	Y7	Z7	X8	Y8	Z8	X9	Y9	Z9	X10	Y10	Z10	X11	Y11	Z11	X12	Y12	Z12	X13	Y13	Z13	X14	Y14	Z14	X15	Y15	Z15	X16	Y16	Z16	X17	Y17	Z17	X18	Y18	Z18	X19	Y19	Z19	X20	Y20	Z20	X21	Y21	Z21	X22	Y22	Z22	X23	Y23	Z23	X24	Y24	Z24	X25	Y25	Z25	X26	Y26	Z26	X27	Y27	Z27	X28	Y28	Z28	X29	Y29	Z29	X30	Y30	Z30	X31	Y31	Z31	X32	Y32	Z32	X33	Y33	Z33	

1	47.710000000000	913.622442444983	1008.275086374171	518.941479046048	1071.029822668829	1438.456741067475	322.847556565211	1191.842565135027	1367.516790967972	470.700113662745	1127.748101398024	1436.744692164474	654.786735379133	1072.950361030554	1496.715192483643	480.985492277110	1150.757325464183	945.864052092621	610.761809243382	1108.694097369712	963.511370577109	340.518176851041	1187.155459151278	742.576922989039	584.605175665800	1104.651470324165	634.334511522722	646.086914526733	1178.032097305959	581.189935465461	563.618480480844	1176.652971745337	491.642880960573	568.960858572846	1194.957622134691	778.766407682291	366.168955324758	1141.693452325044	651.544486511667	291.590410133532	1249.944154968655	587.127962512024	344.137581848265	1260.072335534333	496.552994905319	336.686545031383	1190.060056145427	431.550930367659	331.605026852565	1043.873968033321	397.929966244419	289.901520792048	1027.623203354036	267.835085797653	342.606261768553	1145.708806269785	404.308946659443	575.840900820323	1073.104021592022	302.268095195579	637.401053766780	1110.168468495662	206.652716418770	572.018975852872	970.168019924638	45.084033793882	543.445695996818	1141.655808110336	96.454436646262	577.808892929624	1053.828747014270	38.219818385434	617.472169409252	1261.993731213543	42.239917864628	606.546951366890	835.547769370963	216.312149576903	388.191153217264	886.324282179635	165.706904171613	306.069461847065	992.825169805072	164.236446523274	324.098425710356	1058.878198146232	45.399921818853	293.475505631185	1051.625802301366	1082.838748229339	213.846321306016	1202.549133790978	866.440014691741	206.772063305637	1122.667574282631	1084.779166985716	773.444054691609	1279.316401786833	875.580101701117	754.258435432856	
2	47.721357142857	912.620306816602	1009.226695804184	520.510583336725	1069.314038246979	1438.116067933499	322.950559747338	1191.168324833000	1367.660568674352	470.120689189842	1128.769518739452	1437.793515245456	654.457544620458	1072.557337521134	1497.155038038056	480.870307588230	1149.780870079076	946.017533802358	611.607541813049	1106.762348613478	964.329029155013	341.357563985851	1182.893734949434	741.825121077637	584.738228003122	1099.186329423015	634.549589387751	646.838801702142	1171.076180111180	580.408222398772	564.172932046323	1168.330608488848	491.334460343876	569.405965107274	1194.770559819133	782.488988588856	366.648323660975	1143.991782719306	654.508732412113	292.003233805984	1253.247403844385	592.144467314457	343.880188150127	1265.592941613739	502.612767565059	336.406277810369	1199.112475744598	435.359014426072	331.273462966438	1055.687728966276	393.360945079149	289.879237879607	1047.807994700163	262.754343027428	341.735204267764	1137.275141237596	404.194519648602	576.284508218334	1064.334808426577	302.400064272122	637.853826516038	1101.127612712073	206.662467350588	572.284677251166	960.598877354083	45.203481554857	543.539201078879	1132.217610964389	96.572191753759	578.040115050923	1044.234464931160	38.260419685783	617.509837789370	1252.368301719869	42.096098847983	606.585993106507	860.823306199086	198.950140625209	387.924084880725	913.661661534883	152.775621810230	304.957606397810	1019.586585038980	158.181723401724	322.301796725155	1092.546416712725	44.926471004953	289.879362843549	1043.423883125096	1082.091615649369	216.952006424317	1175.196159579330	856.866101591770	209.827561565735	1136.733459146807	1087.060555665783	773.688171501326	1307.249255153985	892.732845401700	750.986438009829	
3	47.732714285714	911.628395184511	1010.141193170583	522.018595697944	1067.650060016965	1437.760876490189	323.042597565574	1190.514608468318	1367.770806833218	469.548770224090	1129.774131430319	1438.794076398174	654.122919113946	1072.186038570200	1497.556060381898	480.744267324060	1148.800929705894	946.140557245728	612.435448944234	1104.883472416420	965.093361303099	342.171248369620	1178.682598269056	741.068865497643	584.863388982665	1093.775353301010	634.748572638659	647.573379142867	1164.203552511058	579.621835127430	564.725231923564	1160.107158533746	491.023027010347	569.857091160303	1194.555068192010	786.050418264222	367.124893678458	1146.129681302348	657.322318906162	292.423363271330	1256.319060169780	596.911574692370	343.692985224341	1270.812434542441	508.454233179280	336.176057353540	1207.875672988217	439.043122618710	330.952807011480	1067.335949091809	388.697102194903	289.841867301809	1067.855560923272	257.689227258792	340.824623436117	1128.944566772763	404.083868523752	576.734146354856	1055.665626980182	302.523471359386	638.296268750088	1092.191868839682	206.672444641046	572.550317731329	951.151806265237	45.317804960171	543.634093165556	1122.893921929330	96.687378808377	578.266528672381	1034.761565140489	38.299707118583	617.546542615243	1242.864940524379	41.958567212387	606.627764796815	886.147084851279	181.698637250917	387.593287200120	940.959597453745	139.961665880715	303.781027068492	1046.218040057693	152.201641436828	320.464155574370	1125.975368094445	44.589334073897	286.243214035035	1035.232502468203	1081.383730931360	219.946073270038	1148.206828993150	847.772033591302	212.859085405580	1150.602720333054	1089.367458953806	773.886789370107	1334.636294016162	909.958926543060	747.668539082675	
4	47.744071428571	910.656898838017	1010.969355178532	523.407873978707	1066.082648571794	1437.361783108560	323.104788960279	1189.901112846767	1367.795032661731	468.976824812934	1130.754837403004	1439.683904634065	653.764028794726	1071.858060721768	1497.863562069525	480.587046655544	1147.818497824748	946.187783656936	613.218295600357	1103.100458006734	965.731922073090	342.925172711389	1174.542494408111	740.280315442865	584.977557405010	1088.426518763266	634.906244074350	648.273860866212	1157.438311476887	578.809481261328	565.270462210677	1152.012209703673	490.688888480051	570.314834710528	1194.247053186503	789.252880664136	367.599942643880	1147.939338045110	659.822030824610	292.829813896379	1258.908649636275	601.167515613906	343.648058991277	1275.432031197089	513.876447899577	336.055322975366	1216.100402310917	442.501029206464	330.663505693948	1078.783105671898	383.842912309937	289.751616965883	1087.780731237451	252.706742962922	339.851498416728	1120.737137899370	403.964987745558	577.189426106461	1047.110476915246	302.623602050661	638.719270437622	1083.366310041331	206.672783649626	572.812769350959	941.836489624396	45.416816052084	543.731222650455	1113.687240006878	96.794452999508	578.481795943659	1025.419413675387	38.333329771674	617.582677631930	1233.495307030360	41.835368348361	606.673981807003	911.792735847434	164.689354901413	387.116217858395	968.453934070872	127.418464392224	302.498643227592	1072.811911074369	146.448072418726	318.584243567463	1159.179067222286	44.664530251798	282.656165589714	1026.956581682874	1080.786223196533	222.736827085801	1121.746196276401	839.625411979391	215.887242663282	1164.211063903784	1091.774778646954	773.970929396411	1361.052664563255	927.561271812089	744.209189315385	
